# xmcd CD database file
#
# Track frame offsets:
#	150
#	20432
#	38205
#	58202
#	74597
#	94725
#	125087
#	148827
#	165665
#	177920
#
# Disc length: 2559 seconds
#
# Revision: 0
# Processed by: cddbd v1.5.2PL0 Copyright (c) Steve Scherf et al.
# Submitted via: CDex 1.70beta2
#
DISCID=9509fd0a
DTITLE=norber tgottschalk frank haunschild - bridges
DYEAR=2001
DGENRE=Jazz
TTITLE0=Midnight Voyage
TTITLE1=Bridges
TTITLE2=I Wish you Love
TTITLE3=Another Day
TTITLE4=One Note Samba
TTITLE5=Holiday Rain
TTITLE6=You Don't Know what Love is
TTITLE7=Folk Song
TTITLE8=Blue Minor
TTITLE9=Waltz for Me
EXTD=YEAR: 2001
EXTT0=
EXTT1=
EXTT2=
EXTT3=
EXTT4=
EXTT5=
EXTT6=
EXTT7=
EXTT8=
EXTT9=
PLAYORDER=
